<?xml version="1.0" standalone="no"?><!DOCTYPE svg PUBLIC "-//W3C//DTD SVG 1.1//EN" "http://www.w3.org/Graphics/SVG/1.1/DTD/svg11.dtd"><svg t="1582688135394" class="icon" viewBox="0 0 1024 1024" version="1.1" xmlns="http://www.w3.org/2000/svg" p-id="1581" xmlns:xlink="http://www.w3.org/1999/xlink" width="200" height="200"><defs><style type="text/css"></style></defs><path d="M810.688 906.688a32 32 0 0 1 0 64H213.312a32 32 0 0 1 0-64h597.376zM896 42.688c47.104 0 85.312 38.208 85.312 85.312v597.312c0 47.168-38.208 85.376-85.312 85.376H128a85.312 85.312 0 0 1-85.312-85.376V128C42.688 80.896 80.896 42.688 128 42.688h768z m0 64H128A21.312 21.312 0 0 0 106.688 128v597.312c0 11.776 9.536 21.376 21.312 21.376h768c11.776 0 21.312-9.6 21.312-21.376V128A21.312 21.312 0 0 0 896 106.688zM490.688 565.312a32 32 0 0 1 5.76 63.488l-5.76 0.512h-256a32 32 0 0 1-5.76-63.488l5.76-0.512h256zM213.312 394.688h384a32 32 0 0 1 5.76 63.488l-5.76 0.512h-384a32 32 0 0 1-5.76-63.488l5.76-0.512h384-384z m192-149.376a32 32 0 0 1 5.76 63.488l-5.76 0.512H234.688a32 32 0 0 1-5.76-63.488l5.76-0.512h170.624z" p-id="1582" fill="#bfbfbf"></path></svg>